<?xml version="1.0" encoding="utf-8"?>
<!-- Generator: Adobe Illustrator 27.1.0, SVG Export Plug-In . SVG Version: 6.00 Build 0)  -->
<svg version="1.1" xmlns="http://www.w3.org/2000/svg" xmlns:xlink="http://www.w3.org/1999/xlink" x="0px" y="0px"
	 viewBox="0 0 352.6 135.3" style="enable-background:new 0 0 352.6 135.3;" xml:space="preserve">
<style type="text/css">
	.st0{fill:#231F20;}
</style>
<g id="Layer_7">
	<path class="st0" d="M303.2,0c-27.3,0-49.3,22.1-49.3,49.3c0,27.3,22.1,49.3,49.3,49.3c27.3,0,49.3-22.1,49.3-49.3
		C352.6,22.1,330.5,0,303.2,0z M299.6,90.9h-1.1l0,0c-2.6-0.1-3.2-3-3.4-4.3c-1.3-7.5-3.8-23.9-4.2-26.4c-0.4-2.6-5.1-6.6-5.4-9.9
		c-0.4-5,3.4-8.4,4.5-9.4c0.4-0.3,0.6-0.9,0.7-1.7c0,0-1.3-8.1-1.4-8.5c-0.2-1.1-1.8-2.2-4.5-2.6l0,0c0,0,0,0-0.1,0
		c-0.1,0-0.2,0-0.3,0l0,0c-9.4-0.9-10.9-11.7-10.9-11.7c0.1,0,0.2,0.1,0.3,0.1c0.2,0.1,0.5,0.2,0.9,0.4c1.2,0.5,3.3,1,6.8,1
		c3.2,0,7.5,0,8.3,0h0.1h8.2c0.3,0,0.5,0.2,0.6,0.4c0.1,0.1,0.1,0.1,0.1,0.2l0,0.1l1.2,71.4C300.3,90.6,300,90.9,299.6,90.9z
		 M321.9,28.1L321.9,28.1c-0.1,0-0.2,0-0.3,0c0,0,0,0-0.1,0l0,0c-2.7,0.4-4.2,1.5-4.5,2.6c-0.1,0.3-1.4,8.5-1.4,8.5
		c0.2,0.8,0.4,1.4,0.7,1.7c1.1,0.9,4.9,4.4,4.5,9.4c-0.3,3.3-5,7.4-5.4,9.9c-0.4,2.6-2.9,18.9-4.2,26.4c-0.2,1.2-0.9,4.2-3.4,4.3
		l0,0h-1.1c-0.4,0-0.7-0.3-0.7-0.7l1.2-71.4l0-0.1c0-0.1,0-0.1,0.1-0.2c0.1-0.2,0.3-0.4,0.6-0.4h8.2h0.1c0.7,0,5.1,0,8.3,0
		c3.5,0,5.6-0.6,6.8-1c0.4-0.2,0.7-0.3,0.9-0.4c0.1-0.1,0.2-0.1,0.3-0.1C332.8,16.4,331.4,27.2,321.9,28.1z"/>
	<g id="XMLID_00000010993396092439674910000005030698236014064823_">
		<path class="st0" d="M11,4.7c0.1,0,0.1,0,0.2,0c0.3,0,0.4,0,0.6,0h6c6.6,0,11.9,5.4,11.9,11.9v20.9c0,2.8-0.9,5.4-2.6,7.4
			c1.7,2,2.6,4.6,2.6,7.4v29.9c0,6.5-5.2,11.9-11.9,11.9h-6c-0.3,0-0.4,0-0.6,0c-0.1,0-0.1,0-0.2,0H0.9C0.4,94,0,93.6,0,93.1V5.6
			c0-0.5,0.4-0.9,0.9-0.9H11z M11.9,40.4h3.1c1.7,0,2.9-1.3,2.9-2.9V16.6c0-1.7-1.3-2.9-2.9-2.9h-3.1V40.4z M11.9,85.1h3.1
			c1.7,0,2.9-1.3,2.9-2.9V52.3c0-1.7-1.3-2.9-2.9-2.9h-3.1V85.1z"/>
	</g>
	<g id="XMLID_00000000903259650329500790000015265953230374678455_">
		<path class="st0" d="M69.5,5.6v76.6c0,6.5-5.2,11.9-11.9,11.9h-6c-6.5,0-11.9-5.4-11.9-11.9V5.6c0-0.5,0.4-0.9,0.9-0.9h10.1
			c0.5,0,0.9,0.4,0.9,0.9v17.9v58.7c0,1.7,1.4,2.9,3.1,2.9c1.7,0,2.9-1.3,2.9-2.9V5.6c0-0.5,0.4-0.9,0.9-0.9h10.1
			C69.1,4.7,69.5,5.1,69.5,5.6z"/>
	</g>
	<g id="XMLID_00000135680768881353504370000005064761980447308715_">
		<path class="st0" d="M102.5,4.7c0.4,0,0.9,0.4,0.9,0.9v7.1c0,0.5-0.5,0.9-0.9,0.9H91.4v26.8h8c0.5,0,0.9,0.4,0.9,0.9v7.1
			c0,0.5-0.4,0.9-0.9,0.9h-8v43.8c0,0.5-0.4,0.9-0.9,0.9H80.5c-0.5,0-0.9-0.4-0.9-0.9V5.6V5.5c0-0.1,0-0.1,0.1-0.3
			c0.1-0.3,0.4-0.5,0.8-0.5H102.5z"/>
	</g>
	<g id="XMLID_00000149365318595252062950000002506117556548819890_">
		<path class="st0" d="M135.2,4.7c0.4,0,0.9,0.4,0.9,0.9v7.1c0,0.5-0.5,0.9-0.9,0.9h-11.1v26.8h8c0.5,0,0.9,0.4,0.9,0.9v7.1
			c0,0.5-0.4,0.9-0.9,0.9h-8v43.8c0,0.5-0.4,0.9-0.9,0.9h-10.1c-0.5,0-0.9-0.4-0.9-0.9V5.6V5.5c0-0.1,0-0.1,0.1-0.3
			c0.1-0.3,0.4-0.5,0.8-0.5H135.2z"/>
	</g>
	<g id="XMLID_00000053544180472365664140000017838881857555320246_">
		<path class="st0" d="M161.1,4.7c6.6,0,11.9,5.4,11.9,11.9v76.6c0,0.5-0.4,0.9-0.9,0.9H162c-0.5,0-0.9-0.4-0.9-0.9V49.3h-6v43.8
			c0,0.5-0.4,0.9-0.9,0.9h-10.1c-0.5,0-0.9-0.4-0.9-0.9V41.3V16.6c0-6.5,5.4-11.9,11.9-11.9H161.1z M158.2,13.6
			c-1.7,0-3.1,1.3-3.1,2.9v23.9h6V16.6C161.1,14.9,159.8,13.6,158.2,13.6z"/>
	</g>
	<g id="XMLID_00000142873999157732586630000009579599730140684447_">
		<path class="st0" d="M193.8,4.7c0.5,0,0.9,0.4,0.9,0.9v79.5h11.1c0.5,0,0.9,0.4,0.9,0.9v7.1c0,0.5-0.4,0.9-0.9,0.9h-22.1h-0.1
			c-0.1,0-0.1,0-0.1,0s-0.1,0-0.1-0.1c-0.4-0.1-0.5-0.4-0.5-0.8V5.6c0-0.5,0.4-0.9,0.9-0.9H193.8z"/>
	</g>
	<g id="XMLID_00000098215168225112773320000008804904718729214102_">
		<path class="st0" d="M230.4,4.7c6.6,0,11.9,5.4,11.9,11.9v65.6c0,6.5-5.2,11.9-11.9,11.9h-6c-6.5,0-11.9-5.4-11.9-11.9V16.6
			c0-6.5,5.4-11.9,11.9-11.9H230.4z M227.5,13.6c-1.7,0-3.1,1.3-3.1,2.9v65.6c0,1.7,1.4,2.9,3.1,2.9c1.7,0,2.9-1.3,2.9-2.9V16.6
			C230.4,14.9,229.1,13.6,227.5,13.6z"/>
	</g>
	<g>
		<polygon class="st0" points="0,135.1 1.9,135.1 1.9,123 14.5,123 14.5,121 1.9,121 1.9,110.5 15.6,110.5 15.6,108.6 0,108.6 		"/>
		<path class="st0" d="M39,108.6l-8.9,26.5h2l2.2-6.6h10.9l2.2,6.6h2l-8.9-26.5H39z M44.7,126.6H35l4.8-14.3L44.7,126.6z"/>
		<path class="st0" d="M80.7,121.3c2.2-1,3.7-3.3,3.7-5.8c0-3.1-1.6-6.9-9-6.9h-7.8v26.5h8.7c6.6,0,8.9-4,8.9-7.4
			C85.3,124.7,83.6,122.4,80.7,121.3z M69.6,120.4v-9.9h5.9c6.4,0,7.1,2.8,7.1,4.9c0,3.1-2.4,4.9-6.4,4.9H69.6z M69.6,122.3h6
			c5.2,0,7.8,1.8,7.8,5.5c0,3.4-2.6,5.5-7,5.5h-6.8V122.3z"/>
		<path class="st0" d="M122.4,116.4c0-4.9-3.4-7.8-9.4-7.8h-8.2v26.5h1.9v-11h6.3c0.8,0,1.5,0,2.1-0.1l6.1,11.1h2.2l-6.3-11.5
			C120.6,122.5,122.4,120,122.4,116.4z M120.5,116.4c0,3.9-2.4,5.8-7.5,5.8h-6.3v-11.7h6.3C118,110.5,120.5,112.5,120.5,116.4z"/>
		<rect x="142.7" y="108.6" class="st0" width="1.9" height="26.5"/>
		<path class="st0" d="M174.2,110.3c2.9,0,6.5,1.1,7.4,6.3l0.1,0.3h1.9l-0.1-0.5c-1-7.3-6.8-8.1-9.3-8.1c-6.3,0-9.4,3.9-9.4,11.8
			v3.4c0,7.9,3.1,11.8,9.4,11.8c5.1,0,8.5-3.1,9.2-8.2l0.1-0.5h-1.9l-0.1,0.3c-0.7,4.1-3.4,6.4-7.4,6.4c-5.1,0-7.4-3.1-7.4-9.9v-3.4
			C166.8,113.4,169.1,110.3,174.2,110.3z"/>
		<path class="st0" d="M207.9,108.6l-8.9,26.5h2l2.2-6.6h10.9l2.2,6.6h2l-8.9-26.5H207.9z M213.5,126.6h-9.6l4.8-14.3L213.5,126.6z"
			/>
		<polygon class="st0" points="232,110.5 240.5,110.5 240.5,135.1 242.5,135.1 242.5,110.5 251,110.5 251,108.6 232,108.6 		"/>
		<rect x="269.6" y="108.6" class="st0" width="1.9" height="26.5"/>
		<path class="st0" d="M301.1,108.4c-6,0-9.4,4.2-9.4,11.8v3.4c0,7.6,3.3,11.8,9.4,11.8c6,0,9.4-4.2,9.4-11.8v-3.4
			C310.5,112.5,307.2,108.4,301.1,108.4z M308.6,120.1v3.4c0,6.5-2.5,9.9-7.4,9.9c-4.9,0-7.4-3.3-7.4-9.9v-3.4
			c0-6.5,2.5-9.9,7.4-9.9C306.1,110.3,308.6,113.6,308.6,120.1z"/>
		<polygon class="st0" points="346,108.6 346,131.1 332.2,108.8 332.1,108.6 330.4,108.6 330.4,135.1 332.3,135.1 332.3,112.8 
			346.1,134.9 346.2,135.1 347.9,135.1 347.9,108.6 		"/>
	</g>
</g>
<g id="Layer_2">
</g>
</svg>
