<?xml version="1.0" encoding="utf-8"?>
<!-- Generator: Adobe Illustrator 27.1.0, SVG Export Plug-In . SVG Version: 6.00 Build 0)  -->
<svg version="1.1" id="Layer_1" xmlns="http://www.w3.org/2000/svg" xmlns:xlink="http://www.w3.org/1999/xlink" x="0px" y="0px"
	 viewBox="0 0 500 500" style="enable-background:new 0 0 500 500;" xml:space="preserve">
<style type="text/css">
	.st0{display:none;}
	.st1{display:inline;}
	.st2{fill:#EC008C;}
	.st3{fill:#FFFFFF;}
</style>
<g id="Layer_1_00000042719499238210287290000004801777125583357072_" class="st0">
	<g class="st1">
		<path class="st2" d="M333,179.4H167c-8,0-14.5,6.5-14.5,14.5s6.5,14.5,14.5,14.5h166c8,0,14.5-6.5,14.5-14.5S341,179.4,333,179.4z
			"/>
		<path class="st2" d="M333,235.5H167c-8,0-14.5,6.5-14.5,14.5s6.5,14.5,14.5,14.5h166c8,0,14.5-6.5,14.5-14.5S341,235.5,333,235.5z
			"/>
		<path class="st2" d="M333,291.6H167c-8,0-14.5,6.5-14.5,14.5s6.5,14.5,14.5,14.5h166c8,0,14.5-6.5,14.5-14.5S341,291.6,333,291.6z
			"/>
		<path class="st2" d="M250,75.5c-96.2,0-174.5,78.3-174.5,174.5S153.8,424.5,250,424.5S424.5,346.2,424.5,250S346.2,75.5,250,75.5z
			 M250,402.5c-84.1,0-152.5-68.4-152.5-152.5S165.9,97.5,250,97.5S402.5,165.9,402.5,250S334.1,402.5,250,402.5z"/>
	</g>
</g>
<g id="Layer_2_00000019677221431335358520000008767586746675043989_">
	<g>
		<path class="st3" d="M319,181c-5.7-5.7-14.8-5.7-20.5,0L250,229.5L201.6,181c-5.7-5.7-14.8-5.7-20.5,0s-5.7,14.8,0,20.5l48.4,48.4
			L181,298.4c-5.7,5.7-5.7,14.8,0,20.5s14.8,5.7,20.5,0l48.4-48.4l48.4,48.4c5.7,5.7,14.8,5.7,20.5,0s5.7-14.8,0-20.5L270.5,250
			l48.4-48.4C324.6,195.9,324.6,186.7,319,181z"/>
		<path class="st3" d="M250,75.5c-96.2,0-174.5,78.3-174.5,174.5S153.8,424.5,250,424.5S424.5,346.2,424.5,250S346.2,75.5,250,75.5z
			 M250,402.5c-84.1,0-152.5-68.4-152.5-152.5S165.9,97.5,250,97.5S402.5,165.9,402.5,250S334.1,402.5,250,402.5z"/>
	</g>
</g>
</svg>
