<?xml version="1.0" encoding="utf-8"?>
<!-- Generator: Adobe Illustrator 27.1.0, SVG Export Plug-In . SVG Version: 6.00 Build 0)  -->
<svg version="1.1" id="Layer_1" xmlns="http://www.w3.org/2000/svg" xmlns:xlink="http://www.w3.org/1999/xlink" x="0px" y="0px"
	 viewBox="0 0 98.6 98.6" style="enable-background:new 0 0 98.6 98.6;" xml:space="preserve">
<style type="text/css">
	.st0{fill:#231F20;}
</style>
<path class="st0" d="M49.3,0C22,0,0,22.1,0,49.3c0,27.3,22.1,49.3,49.3,49.3c27.3,0,49.3-22.1,49.3-49.3C98.7,22.1,76.6,0,49.3,0z
	 M45.7,90.9h-1.1l0,0c-2.6-0.1-3.2-3-3.4-4.3c-1.3-7.5-3.8-23.9-4.2-26.4c-0.4-2.6-5.1-6.6-5.4-9.9c-0.4-5,3.4-8.4,4.5-9.4
	c0.4-0.3,0.6-0.9,0.7-1.7c0,0-1.3-8.1-1.4-8.5c-0.2-1.1-1.8-2.2-4.5-2.6l0,0c0,0,0,0-0.1,0s-0.2,0-0.3,0l0,0
	c-9.4-0.9-10.9-11.7-10.9-11.7c0.1,0,0.2,0.1,0.3,0.1c0.2,0.1,0.5,0.2,0.9,0.4c1.2,0.5,3.3,1,6.8,1c3.2,0,7.5,0,8.3,0H36h8.2
	c0.3,0,0.5,0.2,0.6,0.4c0.1,0.1,0.1,0.1,0.1,0.2v0.1L46.1,90C46.4,90.6,46.1,90.9,45.7,90.9z M68,28.1L68,28.1c-0.1,0-0.2,0-0.3,0
	c0,0,0,0-0.1,0l0,0c-2.7,0.4-4.2,1.5-4.5,2.6c-0.1,0.3-1.4,8.5-1.4,8.5c0.2,0.8,0.4,1.4,0.7,1.7c1.1,0.9,4.9,4.4,4.5,9.4
	c-0.3,3.3-5,7.4-5.4,9.9c-0.4,2.6-2.9,18.9-4.2,26.4c-0.2,1.2-0.9,4.2-3.4,4.3l0,0h-1.1c-0.4,0-0.7-0.3-0.7-0.7l1.2-71.4v-0.1
	c0-0.1,0-0.1,0.1-0.2c0.1-0.2,0.3-0.4,0.6-0.4h8.2h0.1c0.7,0,5.1,0,8.3,0c3.5,0,5.6-0.6,6.8-1c0.4-0.2,0.7-0.3,0.9-0.4
	c0.1-0.1,0.2-0.1,0.3-0.1C78.9,16.4,77.5,27.2,68,28.1z"/>
</svg>
